<svg xmlns="http://www.w3.org/2000/svg" viewBox="0 0 833.14 254.9"><defs><style>.cls-1{fill:#312782;}.cls-2{fill:#009ee2;}.cls-3{fill:#fff;}.cls-4{fill:#bd1622;}</style></defs><title>Logo</title><g id="Camada_2" data-name="Camada 2"><g id="Camada_1-2" data-name="Camada 1"><rect class="cls-1" x="5.95" y="38.18" width="821.24" height="178.55" rx="67.48" transform="translate(-10.68 42.4) rotate(-5.75)"/><path class="cls-2" d="M96.78,254.9a95.23,95.23,0,0,1-9.48-190L726.75.49A95.23,95.23,0,0,1,745.84,190L106.39,254.42C103.17,254.74,100,254.9,96.78,254.9Zm639.58-243a82.59,82.59,0,0,0-8.42.43L88.49,76.77a83.32,83.32,0,0,0,16.71,165.8l639.45-64.43a83.33,83.33,0,0,0-8.29-166.23Z"/><rect class="cls-1" x="5.95" y="38.18" width="821.24" height="178.55" rx="67.48" transform="translate(818.27 296.02) rotate(-174.25)"/><path class="cls-2" d="M736.37,254.9q-4.77,0-9.62-.48L87.3,190A95.23,95.23,0,0,1,106.39.49L745.84,64.92a95.23,95.23,0,0,1-9.47,190ZM88.49,178.14l639.45,64.43a83.32,83.32,0,1,0,16.71-165.8L105.2,12.34a83.32,83.32,0,0,0-16.71,165.8Z"/><path class="cls-1" d="M737.91,35.1H321.09L294.18,213.65H737.91a89.28,89.28,0,0,0,89.28-89.28h0A89.28,89.28,0,0,0,737.91,35.1Z"/><path class="cls-3" d="M737.91,219.6H287.26L316,29.14H737.91a95.23,95.23,0,1,1,0,190.46ZM301.09,207.69H737.91a83.32,83.32,0,1,0,0-166.64H326.21Z"/><path class="cls-4" d="M321.09,35.1H95.23A89.28,89.28,0,0,0,6,124.37H6a89.28,89.28,0,0,0,89.28,89.28h199Z"/><path class="cls-3" d="M299.3,219.6H95.23a95.23,95.23,0,0,1,0-190.46H328ZM95.23,41.05a83.32,83.32,0,0,0,0,166.64H289.05L314.17,41.05Z"/><path class="cls-3" d="M103.6,72.45l21.84,67.82V72.45h13.08v107.9H125.44L103.6,112.53v67.82H90.53V72.45Z"/><path class="cls-3" d="M154.21,72.45H193V87.09H167.28v31.76H190v13.87H167.28v33h26.16v14.65H154.21Z"/><path class="cls-3" d="M213.83,72.45l7.33,67.2h.52l10.46-67.2H242l10.46,67.2h.78l7.07-67.2h13.86l-14.39,107.9H248L237.5,110.67h-.91l-10.46,69.68H214.36L200,72.45Z"/><path class="cls-3" d="M357.93,72.45v46.4h17.65V72.45h13.08v107.9H375.58V132.72H357.93v47.63H344.85V72.45Z"/><path class="cls-3" d="M403.82,100.81c0-8.17.53-16,6.8-23a22.13,22.13,0,0,1,32.17,0c6.28,6.94,6.8,14.8,6.8,23V152c0,8.17-.52,16-6.8,23a22.11,22.11,0,0,1-32.17,0c-6.27-6.93-6.8-14.79-6.8-23Zm32.69-2.31c0-3.24-.26-6.48-2.74-9.4a9.61,9.61,0,0,0-14.12,0c-2.49,2.92-2.75,6.16-2.75,9.4v55.8c0,3.23.26,6.47,2.75,9.4a9.63,9.63,0,0,0,14.12,0c2.48-2.93,2.74-6.17,2.74-9.4Z"/><path class="cls-3" d="M495,99.42c0-2.31-.14-6.78-2.23-9.86A7.83,7.83,0,0,0,485.81,86a8,8,0,0,0-6.41,2.93c-2.48,3.08-2.74,7.4-2.74,11,0,2.92.39,8.32,2.09,11.25,1.44,2.62,4.05,3.85,6,4.78l8,3.39c3.92,1.69,8.5,3.7,11.9,9.25s3.92,11.87,3.92,18.65v3.7c0,10.94-2.48,19.26-6.27,23.89-3.4,4.16-9.42,7.09-17,7.09-9.29,0-15.3-4.47-18.31-9.4-4.18-6.63-4.18-16.8-4.18-18.19v-3.55h13.07v2.93c0,2.47.26,6.78,2.1,9.56a8.28,8.28,0,0,0,7.19,3.54c5,0,7.19-2.31,8.24-3.85,2-2.93,2.09-7.4,2.09-10.64v-4c0-3.7-.39-8.33-2.09-11.1s-4.84-4.16-6.28-4.78l-9.55-4c-4.7-2-9.41-4.78-12-12-1.83-4.93-2-10.33-2-15.72V97.57c0-8.94,3-15.72,6.8-20,4.32-4.93,9.81-6.62,15.82-6.62,13.08,0,21.84,10,21.84,27.9v3.54H495Z"/><path class="cls-3" d="M522.29,72.45h19.49c5.62,0,12.55.31,18.3,7.09,6,7.24,6.67,16.65,6.67,24.66v3.08c0,6-.52,15-5.62,21.89-5.36,7.25-12.42,8.48-18,8.48h-7.71v42.7H522.29Zm13.08,51.33h7.06a10.35,10.35,0,0,0,8.76-4c2.75-3.54,2.49-7.24,2.49-11.1v-7.09c0-3.7.13-8.94-3.53-12.48-3-2.93-6.67-2.78-10.2-2.78h-4.58Z"/><path class="cls-3" d="M591.59,72.45v107.9H578.52V72.45Z"/><path class="cls-3" d="M647.56,72.45V87.09H631.34v93.26H618.27V87.09H602.05V72.45Z"/><path class="cls-3" d="M682.87,180.35l-4.32-23.12H661.81l-4.31,23.12H644.42l20-107.9h11.51l20,107.9Zm-13-77.84-6.8,41H677Z"/><path class="cls-3" d="M718.17,72.45V165.7h27.72v14.65h-40.8V72.45Z"/></g></g></svg>